<svg width="124" height="124" viewBox="0 0 124 124" fill="none" xmlns="http://www.w3.org/2000/svg">
<rect x="0.589966" y="0.679993" width="123.08" height="123.08" rx="61.54" fill="#5E67E6"/>
<g clip-path="url(#clip0_3_1252)">
<mask id="mask0_3_1252" style="mask-type:luminance" maskUnits="userSpaceOnUse" x="31" y="31" width="62" height="62">
<path d="M92.9 31.45H31.36V92.99H92.9V31.45Z" fill="white"/>
</mask>
<g mask="url(#mask0_3_1252)">
<path d="M79.3734 59.9131C77.6509 59.1511 75.1901 60.1726 73.4489 62.6421C72.3054 64.2635 71.9686 66.5722 70.4666 66.8129C69.893 66.9052 69.5813 66.5561 69.4192 66.0535C69.2483 65.2052 69.2857 63.8943 69.6024 62.0609L73.0198 46.701C73.2917 45.5272 72.6545 44.391 71.1203 44.0206C69.5863 43.6502 68.4325 44.4022 68.1594 45.5759L65.1086 59.5028C64.4937 62.5786 63.3536 62.0197 63.6293 58.5362V58.5349L64.5036 42.2058C64.5747 40.9436 63.6043 39.9121 62.17 39.8572C60.7356 39.8024 59.7017 40.6629 59.6281 41.9239L58.7949 58.6484C58.6165 62.0248 57.408 60.7525 57.146 58.3067L55.2078 44.7764C55.0095 43.5005 53.8134 42.6186 52.379 42.8481C50.9447 43.0789 50.0779 44.265 50.2762 45.541L52.1408 57.9063C52.8804 62.6272 51.9138 63.9343 50.3223 58.8081L48.3342 51.2933C48.0099 50.0872 46.8213 49.3389 45.3283 49.758C43.8353 50.177 43.1917 51.3781 43.5147 52.5842L45.458 59.6475C46.27 64.7326 46.27 66.7393 46.27 70.2403C46.27 73.7416 47.8802 84.5853 60.1969 84.5853C72.5136 84.5853 75.0466 72.0738 75.164 71.2819C75.164 71.2819 75.3174 69.4359 76.6058 67.7084C78.4379 65.2525 79.724 63.7722 80.5035 62.8866C80.8988 62.4388 81.2831 60.7575 79.3734 59.9131Z" fill="white"/>
<path d="M70.0638 66.8006C69.6896 66.6484 69.373 66.2567 69.3353 65.4047C66.9756 65.7278 63.7839 66.3888 61.328 68.7912C58.14 71.9079 57.5963 75.2769 57.6225 77.5307C57.6437 79.3478 58.6352 80.2086 58.9259 77.5157C59.2913 74.1143 61.7721 67.3594 70.0638 66.8006Z" fill="#5E67E6"/>
</g>
</g>
<defs>
<clipPath id="clip0_3_1252">
<rect width="61.54" height="61.54" fill="white" transform="translate(31.36 31.45)"/>
</clipPath>
</defs>
</svg>
