<svg width="1440" height="800" viewBox="0 0 1440 800" fill="none" xmlns="http://www.w3.org/2000/svg">
<g clip-path="url(#clip0_2_6)">
<rect width="1440" height="800" fill="white"/>
<g clip-path="url(#clip1_2_6)">
<rect width="1440" height="800" fill="white"/>
<circle cx="32" cy="41" r="32" fill="white"/>
<circle cx="97" cy="41" r="32" fill="white"/>
<circle cx="162" cy="41" r="32" fill="white"/>
<circle cx="227" cy="41" r="32" fill="white"/>
<circle cx="292" cy="41" r="32" fill="white"/>
<circle cx="357" cy="41" r="32" fill="white"/>
<circle cx="422" cy="41" r="32" fill="white"/>
<circle cx="487" cy="41" r="32" fill="white"/>
<circle cx="552" cy="41" r="32" fill="white"/>
<circle cx="617" cy="41" r="32" fill="white"/>
<circle cx="682" cy="41" r="32" fill="white"/>
<circle cx="747" cy="41" r="32" fill="white"/>
<circle cx="812" cy="41" r="32" fill="white"/>
<circle cx="877" cy="41" r="32" fill="white"/>
<circle cx="942" cy="41" r="32" fill="white"/>
<circle cx="1007" cy="41" r="32" fill="white"/>
<circle cx="1072" cy="41" r="32" fill="white"/>
<circle cx="1137" cy="41" r="32" fill="white"/>
<circle cx="1202" cy="41" r="32" fill="white"/>
<circle cx="1267" cy="41" r="32" fill="white"/>
<circle cx="1332" cy="41" r="32" fill="white"/>
<circle cx="1397" cy="41" r="32" fill="white"/>
<circle cx="32" cy="106" r="32" fill="white"/>
<circle cx="97" cy="106" r="32" fill="white"/>
<circle cx="162" cy="106" r="32" fill="white"/>
<circle cx="227" cy="106" r="32" fill="white"/>
<circle cx="292" cy="106" r="32" fill="white"/>
<circle cx="357" cy="106" r="32" fill="white"/>
<circle cx="422" cy="106" r="32" fill="white"/>
<circle cx="487" cy="106" r="32" fill="white"/>
<circle cx="552" cy="106" r="32" fill="white"/>
<circle cx="617" cy="106" r="32" fill="white"/>
<circle cx="682" cy="106" r="32" fill="white"/>
<circle cx="747" cy="106" r="32" fill="white"/>
<circle cx="812" cy="106" r="32" fill="white"/>
<circle cx="877" cy="106" r="32" fill="white"/>
<circle cx="942" cy="106" r="32" fill="white"/>
<circle cx="1007" cy="106" r="32" fill="white"/>
<circle cx="1072" cy="106" r="32" fill="white"/>
<circle cx="1137" cy="106" r="32" fill="white"/>
<circle cx="1202" cy="106" r="32" fill="white"/>
<circle cx="1267" cy="106" r="32" fill="white"/>
<circle cx="1332" cy="106" r="32" fill="white"/>
<circle cx="1397" cy="106" r="32" fill="white"/>
<circle cx="32" cy="171" r="32" fill="white"/>
<circle cx="97" cy="171" r="32" fill="white"/>
<circle cx="162" cy="171" r="32" fill="white"/>
<circle cx="227" cy="171" r="32" fill="white"/>
<circle cx="292" cy="171" r="32" fill="white"/>
<circle cx="357" cy="171" r="32" fill="white"/>
<circle cx="422" cy="171" r="32" fill="white"/>
<circle cx="487" cy="171" r="32" fill="white"/>
<circle cx="552" cy="171" r="32" fill="white"/>
<circle cx="617" cy="171" r="32" fill="white"/>
<circle cx="682" cy="171" r="32" fill="white"/>
<circle cx="747" cy="171" r="32" fill="white"/>
<circle cx="812" cy="171" r="32" fill="white"/>
<circle cx="877" cy="171" r="32" fill="white"/>
<circle cx="942" cy="171" r="32" fill="white"/>
<circle cx="1007" cy="171" r="32" fill="white"/>
<circle cx="1072" cy="171" r="32" fill="white"/>
<circle cx="1137" cy="171" r="32" fill="white"/>
<circle cx="1202" cy="171" r="32" fill="white"/>
<circle cx="1267" cy="171" r="32" fill="white"/>
<circle cx="1332" cy="171" r="32" fill="white"/>
<circle cx="1397" cy="171" r="32" fill="white"/>
<circle cx="32" cy="236" r="32" fill="white"/>
<circle cx="97" cy="236" r="32" fill="white"/>
<circle cx="162" cy="236" r="32" fill="white"/>
<circle cx="227" cy="236" r="32" fill="white"/>
<circle cx="292" cy="236" r="32" fill="white"/>
<circle cx="357" cy="236" r="32" fill="white"/>
<circle cx="422" cy="236" r="32" fill="white"/>
<circle cx="487" cy="236" r="32" fill="white"/>
<circle cx="552" cy="236" r="32" fill="white"/>
<circle cx="617" cy="236" r="32" fill="white"/>
<circle cx="682" cy="236" r="32" fill="white"/>
<circle cx="747" cy="236" r="32" fill="white"/>
<circle cx="812" cy="236" r="32" fill="white"/>
<circle cx="877" cy="236" r="32" fill="white"/>
<circle cx="942" cy="236" r="32" fill="white"/>
<circle cx="1007" cy="236" r="32" fill="white"/>
<circle cx="1072" cy="236" r="32" fill="white"/>
<circle cx="1137" cy="236" r="32" fill="white"/>
<circle cx="1202" cy="236" r="32" fill="white"/>
<circle cx="1267" cy="236" r="32" fill="white"/>
<circle cx="1332" cy="236" r="32" fill="white"/>
<circle cx="1397" cy="236" r="32" fill="white"/>
<circle cx="32" cy="301" r="32" fill="white"/>
<circle cx="97" cy="301" r="32" fill="white"/>
<circle cx="162" cy="301" r="32" fill="white"/>
<circle cx="227" cy="301" r="32" fill="white"/>
<circle cx="292" cy="301" r="32" fill="white"/>
<circle cx="357" cy="301" r="32" fill="white"/>
<circle cx="422" cy="301" r="32" fill="white"/>
<circle cx="487" cy="301" r="32" fill="white"/>
<circle cx="552" cy="301" r="32" fill="white"/>
<circle cx="617" cy="301" r="32" fill="white"/>
<circle cx="682" cy="301" r="32" fill="white"/>
<circle cx="747" cy="301" r="32" fill="white"/>
<circle cx="812" cy="301" r="32" fill="white"/>
<circle cx="877" cy="301" r="32" fill="white"/>
<circle cx="942" cy="301" r="32" fill="white"/>
<circle cx="1007" cy="301" r="32" fill="white"/>
<circle cx="1072" cy="301" r="32" fill="white"/>
<circle cx="1137" cy="301" r="32" fill="white"/>
<circle cx="1202" cy="301" r="32" fill="white"/>
<circle cx="1267" cy="301" r="32" fill="white"/>
<circle cx="1332" cy="301" r="32" fill="white"/>
<circle cx="1397" cy="301" r="32" fill="white"/>
<circle cx="32" cy="366" r="32" fill="white"/>
<circle cx="97" cy="366" r="32" fill="white"/>
<circle cx="162" cy="366" r="32" fill="white"/>
<circle cx="227" cy="366" r="32" fill="white"/>
<circle cx="292" cy="366" r="32" fill="white"/>
<circle cx="357" cy="366" r="32" fill="white"/>
<circle cx="422" cy="366" r="32" fill="white"/>
<circle cx="487" cy="366" r="32" fill="white"/>
<circle cx="552" cy="366" r="32" fill="white"/>
<circle cx="617" cy="366" r="32" fill="white"/>
<circle cx="682" cy="366" r="32" fill="white"/>
<circle cx="747" cy="366" r="32" fill="white"/>
<circle cx="812" cy="366" r="32" fill="white"/>
<circle cx="877" cy="366" r="32" fill="white"/>
<circle cx="942" cy="366" r="32" fill="white"/>
<circle cx="1007" cy="366" r="32" fill="white"/>
<circle cx="1072" cy="366" r="32" fill="white"/>
<circle cx="1137" cy="366" r="32" fill="white"/>
<circle cx="1202" cy="366" r="32" fill="white"/>
<circle cx="1267" cy="366" r="32" fill="white"/>
<circle cx="1332" cy="366" r="32" fill="white"/>
<circle cx="1397" cy="366" r="32" fill="white"/>
<circle cx="32" cy="431" r="32" fill="white"/>
<circle cx="97" cy="431" r="32" fill="white"/>
<circle cx="162" cy="431" r="32" fill="white"/>
<circle cx="227" cy="431" r="32" fill="white"/>
<circle cx="292" cy="431" r="32" fill="white"/>
<circle cx="357" cy="431" r="32" fill="white"/>
<circle cx="422" cy="431" r="32" fill="white"/>
<circle cx="487" cy="431" r="32" fill="white"/>
<circle cx="552" cy="431" r="32" fill="white"/>
<circle cx="617" cy="431" r="32" fill="white"/>
<circle cx="682" cy="431" r="32" fill="white"/>
<circle cx="747" cy="431" r="32" fill="white"/>
<circle cx="812" cy="431" r="32" fill="white"/>
<circle cx="877" cy="431" r="32" fill="white"/>
<circle cx="942" cy="431" r="32" fill="white"/>
<circle cx="1007" cy="431" r="32" fill="white"/>
<circle cx="1072" cy="431" r="32" fill="white"/>
<circle cx="1137" cy="431" r="32" fill="white"/>
<circle cx="1202" cy="431" r="32" fill="white"/>
<circle cx="1267" cy="431" r="32" fill="white"/>
<circle cx="1332" cy="431" r="32" fill="white"/>
<circle cx="1397" cy="431" r="32" fill="white"/>
<circle cx="32" cy="496" r="32" fill="white"/>
<circle cx="97" cy="496" r="32" fill="white"/>
<circle cx="162" cy="496" r="32" fill="white"/>
<circle cx="227" cy="496" r="32" fill="white"/>
<circle cx="292" cy="496" r="32" fill="white"/>
<circle cx="357" cy="496" r="32" fill="white"/>
<circle cx="422" cy="496" r="32" fill="white"/>
<circle cx="487" cy="496" r="32" fill="white"/>
<circle cx="552" cy="496" r="32" fill="white"/>
<circle cx="617" cy="496" r="32" fill="white"/>
<circle cx="682" cy="496" r="32" fill="white"/>
<circle cx="747" cy="496" r="32" fill="white"/>
<circle cx="812" cy="496" r="32" fill="white"/>
<circle cx="877" cy="496" r="32" fill="white"/>
<circle cx="942" cy="496" r="32" fill="white"/>
<circle cx="1007" cy="496" r="32" fill="white"/>
<circle cx="1072" cy="496" r="32" fill="white"/>
<circle cx="1137" cy="496" r="32" fill="white"/>
<circle cx="1202" cy="496" r="32" fill="white"/>
<circle cx="1267" cy="496" r="32" fill="white"/>
<circle cx="1332" cy="496" r="32" fill="white"/>
<circle cx="1397" cy="496" r="32" fill="white"/>
<circle cx="32" cy="561" r="32" fill="white"/>
<circle cx="97" cy="561" r="32" fill="white"/>
<circle cx="162" cy="561" r="32" fill="white"/>
<circle cx="227" cy="561" r="32" fill="white"/>
<circle cx="292" cy="561" r="32" fill="white"/>
<circle cx="357" cy="561" r="32" fill="white"/>
<circle cx="422" cy="561" r="32" fill="white"/>
<circle cx="487" cy="561" r="32" fill="white"/>
<circle cx="552" cy="561" r="32" fill="white"/>
<circle cx="617" cy="561" r="32" fill="white"/>
<circle cx="682" cy="561" r="32" fill="white"/>
<circle cx="747" cy="561" r="32" fill="white"/>
<circle cx="812" cy="561" r="32" fill="white"/>
<circle cx="877" cy="561" r="32" fill="white"/>
<circle cx="942" cy="561" r="32" fill="white"/>
<circle cx="1007" cy="561" r="32" fill="white"/>
<circle cx="1072" cy="561" r="32" fill="white"/>
<circle cx="1137" cy="561" r="32" fill="white"/>
<circle cx="1202" cy="561" r="32" fill="white"/>
<circle cx="1267" cy="561" r="32" fill="white"/>
<circle cx="1332" cy="561" r="32" fill="white"/>
<circle cx="1397" cy="561" r="32" fill="white"/>
<circle cx="32" cy="626" r="32" fill="white"/>
<circle cx="97" cy="626" r="32" fill="white"/>
<circle cx="162" cy="626" r="32" fill="white"/>
<circle cx="227" cy="626" r="32" fill="white"/>
<circle cx="292" cy="626" r="32" fill="white"/>
<circle cx="357" cy="626" r="32" fill="white"/>
<circle cx="422" cy="626" r="32" fill="white"/>
<circle cx="487" cy="626" r="32" fill="white"/>
<circle cx="552" cy="626" r="32" fill="white"/>
<circle cx="617" cy="626" r="32" fill="white"/>
<circle cx="682" cy="626" r="32" fill="white"/>
<circle cx="747" cy="626" r="32" fill="white"/>
<circle cx="812" cy="626" r="32" fill="white"/>
<circle cx="877" cy="626" r="32" fill="white"/>
<circle cx="942" cy="626" r="32" fill="white"/>
<circle cx="1007" cy="626" r="32" fill="white"/>
<circle cx="1072" cy="626" r="32" fill="white"/>
<circle cx="1137" cy="626" r="32" fill="white"/>
<circle cx="1202" cy="626" r="32" fill="white"/>
<circle cx="1267" cy="626" r="32" fill="white"/>
<circle cx="1332" cy="626" r="32" fill="white"/>
<circle cx="1397" cy="626" r="32" fill="white"/>
<circle cx="32" cy="691" r="32" fill="white"/>
<circle cx="97" cy="691" r="32" fill="white"/>
<circle cx="162" cy="691" r="32" fill="white"/>
<circle cx="227" cy="691" r="32" fill="white"/>
<circle cx="292" cy="691" r="32" fill="white"/>
<circle cx="357" cy="691" r="32" fill="white"/>
<circle cx="422" cy="691" r="32" fill="white"/>
<circle cx="487" cy="691" r="32" fill="white"/>
<circle cx="552" cy="691" r="32" fill="white"/>
<circle cx="617" cy="691" r="32" fill="white"/>
<circle cx="682" cy="691" r="32" fill="white"/>
<circle cx="747" cy="691" r="32" fill="white"/>
<circle cx="812" cy="691" r="32" fill="white"/>
<circle cx="877" cy="691" r="32" fill="white"/>
<circle cx="942" cy="691" r="32" fill="white"/>
<circle cx="1007" cy="691" r="32" fill="white"/>
<circle cx="1072" cy="691" r="32" fill="white"/>
<circle cx="1137" cy="691" r="32" fill="white"/>
<circle cx="1202" cy="691" r="32" fill="white"/>
<circle cx="1267" cy="691" r="32" fill="white"/>
<circle cx="1332" cy="691" r="32" fill="white"/>
<circle cx="1397" cy="691" r="32" fill="white"/>
<circle cx="32" cy="756" r="32" fill="white"/>
<circle cx="97" cy="756" r="32" fill="white"/>
<circle cx="162" cy="756" r="32" fill="white"/>
<circle cx="227" cy="756" r="32" fill="white"/>
<circle cx="292" cy="756" r="32" fill="white"/>
<circle cx="357" cy="756" r="32" fill="white"/>
<circle cx="422" cy="756" r="32" fill="white"/>
<circle cx="487" cy="756" r="32" fill="white"/>
<circle cx="552" cy="756" r="32" fill="white"/>
<circle cx="617" cy="756" r="32" fill="white"/>
<circle cx="682" cy="756" r="32" fill="white"/>
<circle cx="747" cy="756" r="32" fill="white"/>
<circle cx="812" cy="756" r="32" fill="white"/>
<circle cx="877" cy="756" r="32" fill="white"/>
<circle cx="942" cy="756" r="32" fill="white"/>
<circle cx="1007" cy="756" r="32" fill="white"/>
<circle cx="1072" cy="756" r="32" fill="white"/>
<circle cx="1137" cy="756" r="32" fill="white"/>
<circle cx="1202" cy="756" r="32" fill="white"/>
<circle cx="1267" cy="756" r="32" fill="white"/>
<circle cx="1332" cy="756" r="32" fill="white"/>
<circle cx="1397" cy="756" r="32" fill="white"/>
<circle cx="32" cy="821" r="32" fill="white"/>
<circle cx="97" cy="821" r="32" fill="white"/>
<circle cx="162" cy="821" r="32" fill="white"/>
<circle cx="227" cy="821" r="32" fill="white"/>
<circle cx="292" cy="821" r="32" fill="white"/>
<circle cx="357" cy="821" r="32" fill="white"/>
<circle cx="422" cy="821" r="32" fill="white"/>
<circle cx="487" cy="821" r="32" fill="white"/>
<circle cx="552" cy="821" r="32" fill="white"/>
<circle cx="617" cy="821" r="32" fill="white"/>
<circle cx="682" cy="821" r="32" fill="white"/>
<circle cx="747" cy="821" r="32" fill="white"/>
<circle cx="812" cy="821" r="32" fill="white"/>
<circle cx="877" cy="821" r="32" fill="white"/>
<circle cx="942" cy="821" r="32" fill="white"/>
<circle cx="1007" cy="821" r="32" fill="white"/>
<circle cx="1072" cy="821" r="32" fill="white"/>
<circle cx="1137" cy="821" r="32" fill="white"/>
</g>
<g opacity="0.1" clip-path="url(#clip2_2_6)">
<path d="M56.6024 -41L-7.99512 23.5975" stroke="#5E67E6" stroke-width="2"/>
<path d="M56.6025 -41L121.2 23.5975" stroke="#5E67E6" stroke-width="2"/>
<path d="M185.797 -41L121.2 23.5975" stroke="#5E67E6" stroke-width="2"/>
<path d="M185.797 -41L250.395 23.5975" stroke="#5E67E6" stroke-width="2"/>
<path d="M314.993 -41L250.395 23.5975" stroke="#5E67E6" stroke-width="2"/>
<path d="M379.59 -41L314.993 23.5975" stroke="#5E67E6" stroke-width="2"/>
<path d="M379.59 -41L444.188 23.5975" stroke="#5E67E6" stroke-width="2"/>
<path d="M508.785 -41L444.188 23.5975" stroke="#5E67E6" stroke-width="2"/>
<path d="M508.785 -41L573.382 23.5975" stroke="#5E67E6" stroke-width="2"/>
<path d="M637.98 -41L573.382 23.5975" stroke="#5E67E6" stroke-width="2"/>
<path d="M637.98 -41L702.577 23.5975" stroke="#5E67E6" stroke-width="2"/>
<path d="M767.175 -41L702.578 23.5975" stroke="#5E67E6" stroke-width="2"/>
<path d="M831.773 -41L767.175 23.5975" stroke="#5E67E6" stroke-width="2"/>
<path d="M896.37 -41L831.772 23.5975" stroke="#5E67E6" stroke-width="2"/>
<path d="M960.967 -41L896.37 23.5975" stroke="#5E67E6" stroke-width="2"/>
<path d="M1025.56 -41L960.967 23.5975" stroke="#5E67E6" stroke-width="2"/>
<path d="M1090.16 -41L1025.56 23.5975" stroke="#5E67E6" stroke-width="2"/>
<path d="M1090.16 -41L1154.76 23.5975" stroke="#5E67E6" stroke-width="2"/>
<path d="M1154.76 -41L1219.36 23.5975" stroke="#5E67E6" stroke-width="2"/>
<path d="M1219.36 -41L1283.96 23.5975" stroke="#5E67E6" stroke-width="2"/>
<path d="M1283.95 -41L1348.55 23.5975" stroke="#5E67E6" stroke-width="2"/>
<path d="M1348.55 -41L1413.15 23.5975" stroke="#5E67E6" stroke-width="2"/>
<path d="M1413.15 -41L1477.75 23.5975" stroke="#5E67E6" stroke-width="2"/>
<path opacity="0.94" d="M56.6024 23.5975L-7.99512 88.195" stroke="#5E67E6" stroke-width="2"/>
<path opacity="0.94" d="M56.6025 23.5975L121.2 88.195" stroke="#5E67E6" stroke-width="2"/>
<path opacity="0.94" d="M121.2 23.5975L185.797 88.195" stroke="#5E67E6" stroke-width="2"/>
<path opacity="0.94" d="M250.395 23.5975L185.797 88.195" stroke="#5E67E6" stroke-width="2"/>
<path opacity="0.94" d="M314.993 23.5975L250.395 88.195" stroke="#5E67E6" stroke-width="2"/>
<path opacity="0.94" d="M379.59 23.5975L314.993 88.195" stroke="#5E67E6" stroke-width="2"/>
<path opacity="0.94" d="M444.188 23.5975L379.59 88.195" stroke="#5E67E6" stroke-width="2"/>
<path opacity="0.94" d="M444.188 23.5975L508.785 88.195" stroke="#5E67E6" stroke-width="2"/>
<path opacity="0.94" d="M508.785 23.5975L573.382 88.195" stroke="#5E67E6" stroke-width="2"/>
<path opacity="0.94" d="M573.382 23.5975L637.98 88.195" stroke="#5E67E6" stroke-width="2"/>
<path opacity="0.94" d="M702.577 23.5975L637.98 88.195" stroke="#5E67E6" stroke-width="2"/>
<path opacity="0.94" d="M767.175 23.5975L702.578 88.195" stroke="#5E67E6" stroke-width="2"/>
<path opacity="0.94" d="M831.773 23.5975L767.175 88.195" stroke="#5E67E6" stroke-width="2"/>
<path opacity="0.94" d="M831.772 23.5975L896.37 88.195" stroke="#5E67E6" stroke-width="2"/>
<path opacity="0.94" d="M896.37 23.5975L960.967 88.195" stroke="#5E67E6" stroke-width="2"/>
<path opacity="0.94" d="M960.967 23.5975L1025.56 88.195" stroke="#5E67E6" stroke-width="2"/>
<path opacity="0.94" d="M1090.16 23.5975L1025.56 88.195" stroke="#5E67E6" stroke-width="2"/>
<path opacity="0.94" d="M1154.76 23.5975L1090.16 88.195" stroke="#5E67E6" stroke-width="2"/>
<path opacity="0.94" d="M1154.76 23.5975L1219.36 88.195" stroke="#5E67E6" stroke-width="2"/>
<path opacity="0.94" d="M1219.36 23.5975L1283.96 88.195" stroke="#5E67E6" stroke-width="2"/>
<path opacity="0.94" d="M1348.55 23.5975L1283.95 88.195" stroke="#5E67E6" stroke-width="2"/>
<path opacity="0.94" d="M1413.15 23.5975L1348.55 88.195" stroke="#5E67E6" stroke-width="2"/>
<path opacity="0.94" d="M1477.75 23.5975L1413.15 88.195" stroke="#5E67E6" stroke-width="2"/>
<path opacity="0.87" d="M-7.99512 88.195L56.6024 152.793" stroke="#5E67E6" stroke-width="2"/>
<path opacity="0.87" d="M56.6025 88.195L121.2 152.793" stroke="#5E67E6" stroke-width="2"/>
<path opacity="0.87" d="M121.2 88.195L185.797 152.793" stroke="#5E67E6" stroke-width="2"/>
<path opacity="0.87" d="M185.797 88.195L250.395 152.793" stroke="#5E67E6" stroke-width="2"/>
<path opacity="0.87" d="M250.395 88.195L314.993 152.793" stroke="#5E67E6" stroke-width="2"/>
<path opacity="0.87" d="M379.59 88.195L314.993 152.793" stroke="#5E67E6" stroke-width="2"/>
<path opacity="0.87" d="M379.59 88.195L444.188 152.793" stroke="#5E67E6" stroke-width="2"/>
<path opacity="0.87" d="M444.188 88.195L508.785 152.793" stroke="#5E67E6" stroke-width="2"/>
<path opacity="0.87" d="M573.382 88.195L508.785 152.793" stroke="#5E67E6" stroke-width="2"/>
<path opacity="0.87" d="M573.382 88.195L637.98 152.793" stroke="#5E67E6" stroke-width="2"/>
<path opacity="0.87" d="M702.577 88.195L637.98 152.793" stroke="#5E67E6" stroke-width="2"/>
<path opacity="0.87" d="M702.578 88.195L767.175 152.793" stroke="#5E67E6" stroke-width="2"/>
<path opacity="0.87" d="M767.175 88.195L831.773 152.793" stroke="#5E67E6" stroke-width="2"/>
<path opacity="0.87" d="M896.37 88.195L831.772 152.793" stroke="#5E67E6" stroke-width="2"/>
<path opacity="0.87" d="M896.37 88.195L960.967 152.793" stroke="#5E67E6" stroke-width="2"/>
<path opacity="0.87" d="M960.967 88.195L1025.56 152.793" stroke="#5E67E6" stroke-width="2"/>
<path opacity="0.87" d="M1090.16 88.195L1025.56 152.793" stroke="#5E67E6" stroke-width="2"/>
<path opacity="0.87" d="M1090.16 88.195L1154.76 152.793" stroke="#5E67E6" stroke-width="2"/>
<path opacity="0.87" d="M1154.76 88.195L1219.36 152.793" stroke="#5E67E6" stroke-width="2"/>
<path opacity="0.87" d="M1219.36 88.195L1283.96 152.793" stroke="#5E67E6" stroke-width="2"/>
<path opacity="0.87" d="M1283.95 88.195L1348.55 152.793" stroke="#5E67E6" stroke-width="2"/>
<path opacity="0.87" d="M1413.15 88.195L1348.55 152.793" stroke="#5E67E6" stroke-width="2"/>
<path opacity="0.87" d="M1477.75 88.195L1413.15 152.793" stroke="#5E67E6" stroke-width="2"/>
<path opacity="0.81" d="M56.6024 152.792L-7.99512 217.39" stroke="#5E67E6" stroke-width="2"/>
<path opacity="0.81" d="M121.2 152.792L56.6025 217.39" stroke="#5E67E6" stroke-width="2"/>
<path opacity="0.81" d="M121.2 152.792L185.797 217.39" stroke="#5E67E6" stroke-width="2"/>
<path opacity="0.81" d="M250.395 152.792L185.797 217.39" stroke="#5E67E6" stroke-width="2"/>
<path opacity="0.81" d="M314.993 152.792L250.395 217.39" stroke="#5E67E6" stroke-width="2"/>
<path opacity="0.81" d="M379.59 152.792L314.993 217.39" stroke="#5E67E6" stroke-width="2"/>
<path opacity="0.81" d="M444.188 152.792L379.59 217.39" stroke="#5E67E6" stroke-width="2"/>
<path opacity="0.81" d="M444.188 152.792L508.785 217.39" stroke="#5E67E6" stroke-width="2"/>
<path opacity="0.81" d="M573.382 152.792L508.785 217.39" stroke="#5E67E6" stroke-width="2"/>
<path opacity="0.81" d="M573.382 152.792L637.98 217.39" stroke="#5E67E6" stroke-width="2"/>
<path opacity="0.81" d="M702.577 152.792L637.98 217.39" stroke="#5E67E6" stroke-width="2"/>
<path opacity="0.81" d="M702.578 152.792L767.175 217.39" stroke="#5E67E6" stroke-width="2"/>
<path opacity="0.81" d="M767.175 152.792L831.773 217.39" stroke="#5E67E6" stroke-width="2"/>
<path opacity="0.81" d="M831.772 152.792L896.37 217.39" stroke="#5E67E6" stroke-width="2"/>
<path opacity="0.81" d="M960.967 152.792L896.37 217.39" stroke="#5E67E6" stroke-width="2"/>
<path opacity="0.81" d="M1025.56 152.792L960.967 217.39" stroke="#5E67E6" stroke-width="2"/>
<path opacity="0.81" d="M1025.56 152.792L1090.16 217.39" stroke="#5E67E6" stroke-width="2"/>
<path opacity="0.81" d="M1154.76 152.792L1090.16 217.39" stroke="#5E67E6" stroke-width="2"/>
<path opacity="0.81" d="M1219.36 152.792L1154.76 217.39" stroke="#5E67E6" stroke-width="2"/>
<path opacity="0.81" d="M1283.96 152.792L1219.36 217.39" stroke="#5E67E6" stroke-width="2"/>
<path opacity="0.81" d="M1348.55 152.792L1283.95 217.39" stroke="#5E67E6" stroke-width="2"/>
<path opacity="0.81" d="M1413.15 152.792L1348.55 217.39" stroke="#5E67E6" stroke-width="2"/>
<path opacity="0.81" d="M1413.15 152.792L1477.75 217.39" stroke="#5E67E6" stroke-width="2"/>
<path opacity="0.74" d="M56.6024 217.39L-7.99512 281.988" stroke="#5E67E6" stroke-width="2"/>
<path opacity="0.74" d="M121.2 217.39L56.6025 281.988" stroke="#5E67E6" stroke-width="2"/>
<path opacity="0.74" d="M121.2 217.39L185.797 281.988" stroke="#5E67E6" stroke-width="2"/>
<path opacity="0.74" d="M185.797 217.39L250.395 281.988" stroke="#5E67E6" stroke-width="2"/>
<path opacity="0.74" d="M250.395 217.39L314.993 281.988" stroke="#5E67E6" stroke-width="2"/>
<path opacity="0.74" d="M314.993 217.39L379.59 281.988" stroke="#5E67E6" stroke-width="2"/>
<path opacity="0.74" d="M379.59 217.39L444.188 281.988" stroke="#5E67E6" stroke-width="2"/>
<path opacity="0.74" d="M444.188 217.39L508.785 281.988" stroke="#5E67E6" stroke-width="2"/>
<path opacity="0.74" d="M508.785 217.39L573.382 281.988" stroke="#5E67E6" stroke-width="2"/>
<path opacity="0.74" d="M637.98 217.39L573.382 281.988" stroke="#5E67E6" stroke-width="2"/>
<path opacity="0.74" d="M637.98 217.39L702.577 281.988" stroke="#5E67E6" stroke-width="2"/>
<path opacity="0.74" d="M767.175 217.39L702.578 281.988" stroke="#5E67E6" stroke-width="2"/>
<path opacity="0.74" d="M767.175 217.39L831.773 281.988" stroke="#5E67E6" stroke-width="2"/>
<path opacity="0.74" d="M896.37 217.39L831.772 281.988" stroke="#5E67E6" stroke-width="2"/>
<path opacity="0.74" d="M960.967 217.39L896.37 281.988" stroke="#5E67E6" stroke-width="2"/>
<path opacity="0.74" d="M960.967 217.39L1025.56 281.988" stroke="#5E67E6" stroke-width="2"/>
<path opacity="0.74" d="M1025.56 217.39L1090.16 281.988" stroke="#5E67E6" stroke-width="2"/>
<path opacity="0.74" d="M1154.76 217.39L1090.16 281.988" stroke="#5E67E6" stroke-width="2"/>
<path opacity="0.74" d="M1154.76 217.39L1219.36 281.988" stroke="#5E67E6" stroke-width="2"/>
<path opacity="0.74" d="M1219.36 217.39L1283.96 281.988" stroke="#5E67E6" stroke-width="2"/>
<path opacity="0.74" d="M1283.95 217.39L1348.55 281.988" stroke="#5E67E6" stroke-width="2"/>
<path opacity="0.74" d="M1348.55 217.39L1413.15 281.988" stroke="#5E67E6" stroke-width="2"/>
<path opacity="0.74" d="M1477.75 217.39L1413.15 281.988" stroke="#5E67E6" stroke-width="2"/>
<path opacity="0.68" d="M-7.99512 281.987L56.6024 346.585" stroke="#5E67E6" stroke-width="2"/>
<path opacity="0.68" d="M56.6025 281.987L121.2 346.585" stroke="#5E67E6" stroke-width="2"/>
<path opacity="0.68" d="M121.2 281.987L185.797 346.585" stroke="#5E67E6" stroke-width="2"/>
<path opacity="0.68" d="M250.395 281.987L185.797 346.585" stroke="#5E67E6" stroke-width="2"/>
<path opacity="0.68" d="M250.395 281.987L314.993 346.585" stroke="#5E67E6" stroke-width="2"/>
<path opacity="0.68" d="M379.59 281.987L314.993 346.585" stroke="#5E67E6" stroke-width="2"/>
<path opacity="0.68" d="M444.188 281.987L379.59 346.585" stroke="#5E67E6" stroke-width="2"/>
<path opacity="0.68" d="M508.785 281.987L444.188 346.585" stroke="#5E67E6" stroke-width="2"/>
<path opacity="0.68" d="M508.785 281.987L573.382 346.585" stroke="#5E67E6" stroke-width="2"/>
<path opacity="0.68" d="M637.98 281.987L573.382 346.585" stroke="#5E67E6" stroke-width="2"/>
<path opacity="0.68" d="M702.577 281.987L637.98 346.585" stroke="#5E67E6" stroke-width="2"/>
<path opacity="0.68" d="M702.578 281.987L767.175 346.585" stroke="#5E67E6" stroke-width="2"/>
<path opacity="0.68" d="M831.773 281.987L767.175 346.585" stroke="#5E67E6" stroke-width="2"/>
<path opacity="0.68" d="M831.772 281.987L896.37 346.585" stroke="#5E67E6" stroke-width="2"/>
<path opacity="0.68" d="M896.37 281.987L960.967 346.585" stroke="#5E67E6" stroke-width="2"/>
<path opacity="0.68" d="M1025.56 281.987L960.967 346.585" stroke="#5E67E6" stroke-width="2"/>
<path opacity="0.68" d="M1090.16 281.987L1025.56 346.585" stroke="#5E67E6" stroke-width="2"/>
<path opacity="0.68" d="M1154.76 281.987L1090.16 346.585" stroke="#5E67E6" stroke-width="2"/>
<path opacity="0.68" d="M1219.36 281.987L1154.76 346.585" stroke="#5E67E6" stroke-width="2"/>
<path opacity="0.68" d="M1219.36 281.987L1283.96 346.585" stroke="#5E67E6" stroke-width="2"/>
<path opacity="0.68" d="M1283.95 281.987L1348.55 346.585" stroke="#5E67E6" stroke-width="2"/>
<path opacity="0.68" d="M1348.55 281.987L1413.15 346.585" stroke="#5E67E6" stroke-width="2"/>
<path opacity="0.68" d="M1477.75 281.987L1413.15 346.585" stroke="#5E67E6" stroke-width="2"/>
<path opacity="0.62" d="M-7.99512 346.585L56.6024 411.183" stroke="#5E67E6" stroke-width="2"/>
<path opacity="0.62" d="M121.2 346.585L56.6025 411.183" stroke="#5E67E6" stroke-width="2"/>
<path opacity="0.62" d="M121.2 346.585L185.797 411.183" stroke="#5E67E6" stroke-width="2"/>
<path opacity="0.62" d="M185.797 346.585L250.395 411.183" stroke="#5E67E6" stroke-width="2"/>
<path opacity="0.62" d="M250.395 346.585L314.993 411.183" stroke="#5E67E6" stroke-width="2"/>
<path opacity="0.62" d="M379.59 346.585L314.993 411.183" stroke="#5E67E6" stroke-width="2"/>
<path opacity="0.62" d="M444.188 346.585L379.59 411.183" stroke="#5E67E6" stroke-width="2"/>
<path opacity="0.62" d="M508.785 346.585L444.188 411.183" stroke="#5E67E6" stroke-width="2"/>
<path opacity="0.62" d="M573.382 346.585L508.785 411.183" stroke="#5E67E6" stroke-width="2"/>
<path opacity="0.62" d="M573.382 346.585L637.98 411.183" stroke="#5E67E6" stroke-width="2"/>
<path opacity="0.62" d="M702.577 346.585L637.98 411.183" stroke="#5E67E6" stroke-width="2"/>
<path opacity="0.62" d="M767.175 346.585L702.578 411.183" stroke="#5E67E6" stroke-width="2"/>
<path opacity="0.62" d="M831.773 346.585L767.175 411.183" stroke="#5E67E6" stroke-width="2"/>
<path opacity="0.62" d="M831.772 346.585L896.37 411.183" stroke="#5E67E6" stroke-width="2"/>
<path opacity="0.62" d="M896.37 346.585L960.967 411.183" stroke="#5E67E6" stroke-width="2"/>
<path opacity="0.62" d="M960.967 346.585L1025.56 411.183" stroke="#5E67E6" stroke-width="2"/>
<path opacity="0.62" d="M1025.56 346.585L1090.16 411.183" stroke="#5E67E6" stroke-width="2"/>
<path opacity="0.62" d="M1090.16 346.585L1154.76 411.183" stroke="#5E67E6" stroke-width="2"/>
<path opacity="0.62" d="M1219.36 346.585L1154.76 411.183" stroke="#5E67E6" stroke-width="2"/>
<path opacity="0.62" d="M1283.96 346.585L1219.36 411.183" stroke="#5E67E6" stroke-width="2"/>
<path opacity="0.62" d="M1348.55 346.585L1283.95 411.183" stroke="#5E67E6" stroke-width="2"/>
<path opacity="0.62" d="M1348.55 346.585L1413.15 411.183" stroke="#5E67E6" stroke-width="2"/>
<path opacity="0.62" d="M1413.15 346.585L1477.75 411.183" stroke="#5E67E6" stroke-width="2"/>
<path opacity="0.55" d="M56.6024 411.182L-7.99512 475.78" stroke="#5E67E6" stroke-width="2"/>
<path opacity="0.55" d="M121.2 411.182L56.6025 475.78" stroke="#5E67E6" stroke-width="2"/>
<path opacity="0.55" d="M121.2 411.182L185.797 475.78" stroke="#5E67E6" stroke-width="2"/>
<path opacity="0.55" d="M250.395 411.182L185.797 475.78" stroke="#5E67E6" stroke-width="2"/>
<path opacity="0.55" d="M250.395 411.182L314.993 475.78" stroke="#5E67E6" stroke-width="2"/>
<path opacity="0.55" d="M314.993 411.182L379.59 475.78" stroke="#5E67E6" stroke-width="2"/>
<path opacity="0.55" d="M444.188 411.182L379.59 475.78" stroke="#5E67E6" stroke-width="2"/>
<path opacity="0.55" d="M508.785 411.182L444.188 475.78" stroke="#5E67E6" stroke-width="2"/>
<path opacity="0.55" d="M573.382 411.182L508.785 475.78" stroke="#5E67E6" stroke-width="2"/>
<path opacity="0.55" d="M637.98 411.182L573.382 475.78" stroke="#5E67E6" stroke-width="2"/>
<path opacity="0.55" d="M637.98 411.182L702.577 475.78" stroke="#5E67E6" stroke-width="2"/>
<path opacity="0.55" d="M702.578 411.182L767.175 475.78" stroke="#5E67E6" stroke-width="2"/>
<path opacity="0.55" d="M831.773 411.182L767.175 475.78" stroke="#5E67E6" stroke-width="2"/>
<path opacity="0.55" d="M831.772 411.182L896.37 475.78" stroke="#5E67E6" stroke-width="2"/>
<path opacity="0.55" d="M960.967 411.182L896.37 475.78" stroke="#5E67E6" stroke-width="2"/>
<path opacity="0.55" d="M960.967 411.182L1025.56 475.78" stroke="#5E67E6" stroke-width="2"/>
<path opacity="0.55" d="M1090.16 411.182L1025.56 475.78" stroke="#5E67E6" stroke-width="2"/>
<path opacity="0.55" d="M1154.76 411.182L1090.16 475.78" stroke="#5E67E6" stroke-width="2"/>
<path opacity="0.55" d="M1219.36 411.182L1154.76 475.78" stroke="#5E67E6" stroke-width="2"/>
<path opacity="0.55" d="M1219.36 411.182L1283.96 475.78" stroke="#5E67E6" stroke-width="2"/>
<path opacity="0.55" d="M1283.95 411.182L1348.55 475.78" stroke="#5E67E6" stroke-width="2"/>
<path opacity="0.55" d="M1348.55 411.182L1413.15 475.78" stroke="#5E67E6" stroke-width="2"/>
<path opacity="0.55" d="M1477.75 411.182L1413.15 475.78" stroke="#5E67E6" stroke-width="2"/>
<path opacity="0.49" d="M56.6024 475.78L-7.99512 540.378" stroke="#5E67E6" stroke-width="2"/>
<path opacity="0.49" d="M56.6025 475.78L121.2 540.378" stroke="#5E67E6" stroke-width="2"/>
<path opacity="0.49" d="M185.797 475.78L121.2 540.378" stroke="#5E67E6" stroke-width="2"/>
<path opacity="0.49" d="M250.395 475.78L185.797 540.378" stroke="#5E67E6" stroke-width="2"/>
<path opacity="0.49" d="M314.993 475.78L250.395 540.378" stroke="#5E67E6" stroke-width="2"/>
<path opacity="0.49" d="M379.59 475.78L314.993 540.378" stroke="#5E67E6" stroke-width="2"/>
<path opacity="0.49" d="M379.59 475.78L444.188 540.378" stroke="#5E67E6" stroke-width="2"/>
<path opacity="0.49" d="M508.785 475.78L444.188 540.378" stroke="#5E67E6" stroke-width="2"/>
<path opacity="0.49" d="M573.382 475.78L508.785 540.378" stroke="#5E67E6" stroke-width="2"/>
<path opacity="0.49" d="M637.98 475.78L573.382 540.378" stroke="#5E67E6" stroke-width="2"/>
<path opacity="0.49" d="M637.98 475.78L702.577 540.378" stroke="#5E67E6" stroke-width="2"/>
<path opacity="0.49" d="M702.578 475.78L767.175 540.378" stroke="#5E67E6" stroke-width="2"/>
<path opacity="0.49" d="M831.773 475.78L767.175 540.378" stroke="#5E67E6" stroke-width="2"/>
<path opacity="0.49" d="M831.772 475.78L896.37 540.378" stroke="#5E67E6" stroke-width="2"/>
<path opacity="0.49" d="M960.967 475.78L896.37 540.378" stroke="#5E67E6" stroke-width="2"/>
<path opacity="0.49" d="M960.967 475.78L1025.56 540.378" stroke="#5E67E6" stroke-width="2"/>
<path opacity="0.49" d="M1090.16 475.78L1025.56 540.378" stroke="#5E67E6" stroke-width="2"/>
<path opacity="0.49" d="M1154.76 475.78L1090.16 540.378" stroke="#5E67E6" stroke-width="2"/>
<path opacity="0.49" d="M1219.36 475.78L1154.76 540.378" stroke="#5E67E6" stroke-width="2"/>
<path opacity="0.49" d="M1219.36 475.78L1283.96 540.378" stroke="#5E67E6" stroke-width="2"/>
<path opacity="0.49" d="M1283.95 475.78L1348.55 540.378" stroke="#5E67E6" stroke-width="2"/>
<path opacity="0.49" d="M1348.55 475.78L1413.15 540.378" stroke="#5E67E6" stroke-width="2"/>
<path opacity="0.49" d="M1413.15 475.78L1477.75 540.378" stroke="#5E67E6" stroke-width="2"/>
<path opacity="0.42" d="M56.6024 540.377L-7.99512 604.975" stroke="#5E67E6" stroke-width="2"/>
<path opacity="0.42" d="M121.2 540.377L56.6025 604.975" stroke="#5E67E6" stroke-width="2"/>
<path opacity="0.42" d="M185.797 540.377L121.2 604.975" stroke="#5E67E6" stroke-width="2"/>
<path opacity="0.42" d="M250.395 540.377L185.797 604.975" stroke="#5E67E6" stroke-width="2"/>
<path opacity="0.42" d="M314.993 540.377L250.395 604.975" stroke="#5E67E6" stroke-width="2"/>
<path opacity="0.42" d="M314.993 540.377L379.59 604.975" stroke="#5E67E6" stroke-width="2"/>
<path opacity="0.42" d="M444.188 540.377L379.59 604.975" stroke="#5E67E6" stroke-width="2"/>
<path opacity="0.42" d="M444.188 540.377L508.785 604.975" stroke="#5E67E6" stroke-width="2"/>
<path opacity="0.42" d="M508.785 540.377L573.382 604.975" stroke="#5E67E6" stroke-width="2"/>
<path opacity="0.42" d="M573.382 540.377L637.98 604.975" stroke="#5E67E6" stroke-width="2"/>
<path opacity="0.42" d="M702.577 540.377L637.98 604.975" stroke="#5E67E6" stroke-width="2"/>
<path opacity="0.42" d="M702.578 540.377L767.175 604.975" stroke="#5E67E6" stroke-width="2"/>
<path opacity="0.42" d="M767.175 540.377L831.773 604.975" stroke="#5E67E6" stroke-width="2"/>
<path opacity="0.42" d="M831.772 540.377L896.37 604.975" stroke="#5E67E6" stroke-width="2"/>
<path opacity="0.42" d="M896.37 540.377L960.967 604.975" stroke="#5E67E6" stroke-width="2"/>
<path opacity="0.42" d="M960.967 540.377L1025.56 604.975" stroke="#5E67E6" stroke-width="2"/>
<path opacity="0.42" d="M1025.56 540.377L1090.16 604.975" stroke="#5E67E6" stroke-width="2"/>
<path opacity="0.42" d="M1154.76 540.377L1090.16 604.975" stroke="#5E67E6" stroke-width="2"/>
<path opacity="0.42" d="M1219.36 540.377L1154.76 604.975" stroke="#5E67E6" stroke-width="2"/>
<path opacity="0.42" d="M1219.36 540.377L1283.96 604.975" stroke="#5E67E6" stroke-width="2"/>
<path opacity="0.42" d="M1348.55 540.377L1283.95 604.975" stroke="#5E67E6" stroke-width="2"/>
<path opacity="0.42" d="M1348.55 540.377L1413.15 604.975" stroke="#5E67E6" stroke-width="2"/>
<path opacity="0.42" d="M1413.15 540.377L1477.75 604.975" stroke="#5E67E6" stroke-width="2"/>
<path opacity="0.36" d="M-7.99512 604.975L56.6024 669.572" stroke="#5E67E6" stroke-width="2"/>
<path opacity="0.36" d="M121.2 604.975L56.6025 669.572" stroke="#5E67E6" stroke-width="2"/>
<path opacity="0.36" d="M185.797 604.975L121.2 669.572" stroke="#5E67E6" stroke-width="2"/>
<path opacity="0.36" d="M250.395 604.975L185.797 669.572" stroke="#5E67E6" stroke-width="2"/>
<path opacity="0.36" d="M314.993 604.975L250.395 669.572" stroke="#5E67E6" stroke-width="2"/>
<path opacity="0.36" d="M379.59 604.975L314.993 669.572" stroke="#5E67E6" stroke-width="2"/>
<path opacity="0.36" d="M444.188 604.975L379.59 669.572" stroke="#5E67E6" stroke-width="2"/>
<path opacity="0.36" d="M508.785 604.975L444.188 669.572" stroke="#5E67E6" stroke-width="2"/>
<path opacity="0.36" d="M508.785 604.975L573.382 669.572" stroke="#5E67E6" stroke-width="2"/>
<path opacity="0.36" d="M637.98 604.975L573.382 669.572" stroke="#5E67E6" stroke-width="2"/>
<path opacity="0.36" d="M702.577 604.975L637.98 669.572" stroke="#5E67E6" stroke-width="2"/>
<path opacity="0.36" d="M767.175 604.975L702.578 669.572" stroke="#5E67E6" stroke-width="2"/>
<path opacity="0.36" d="M831.773 604.975L767.175 669.572" stroke="#5E67E6" stroke-width="2"/>
<path opacity="0.36" d="M831.772 604.975L896.37 669.572" stroke="#5E67E6" stroke-width="2"/>
<path opacity="0.36" d="M960.967 604.975L896.37 669.572" stroke="#5E67E6" stroke-width="2"/>
<path opacity="0.36" d="M1025.56 604.975L960.967 669.572" stroke="#5E67E6" stroke-width="2"/>
<path opacity="0.36" d="M1025.56 604.975L1090.16 669.572" stroke="#5E67E6" stroke-width="2"/>
<path opacity="0.36" d="M1090.16 604.975L1154.76 669.572" stroke="#5E67E6" stroke-width="2"/>
<path opacity="0.36" d="M1154.76 604.975L1219.36 669.572" stroke="#5E67E6" stroke-width="2"/>
<path opacity="0.36" d="M1219.36 604.975L1283.96 669.572" stroke="#5E67E6" stroke-width="2"/>
<path opacity="0.36" d="M1348.55 604.975L1283.95 669.572" stroke="#5E67E6" stroke-width="2"/>
<path opacity="0.36" d="M1348.55 604.975L1413.15 669.572" stroke="#5E67E6" stroke-width="2"/>
<path opacity="0.36" d="M1477.75 604.975L1413.15 669.572" stroke="#5E67E6" stroke-width="2"/>
<path opacity="0.29" d="M-7.99512 669.573L56.6024 734.17" stroke="#5E67E6" stroke-width="2"/>
<path opacity="0.29" d="M121.2 669.573L56.6025 734.17" stroke="#5E67E6" stroke-width="2"/>
<path opacity="0.29" d="M185.797 669.573L121.2 734.17" stroke="#5E67E6" stroke-width="2"/>
<path opacity="0.29" d="M250.395 669.573L185.797 734.17" stroke="#5E67E6" stroke-width="2"/>
<path opacity="0.29" d="M250.395 669.573L314.993 734.17" stroke="#5E67E6" stroke-width="2"/>
<path opacity="0.29" d="M314.993 669.573L379.59 734.17" stroke="#5E67E6" stroke-width="2"/>
<path opacity="0.29" d="M444.188 669.573L379.59 734.17" stroke="#5E67E6" stroke-width="2"/>
<path opacity="0.29" d="M508.785 669.573L444.188 734.17" stroke="#5E67E6" stroke-width="2"/>
<path opacity="0.29" d="M508.785 669.573L573.382 734.17" stroke="#5E67E6" stroke-width="2"/>
<path opacity="0.29" d="M573.382 669.573L637.98 734.17" stroke="#5E67E6" stroke-width="2"/>
<path opacity="0.29" d="M637.98 669.573L702.577 734.17" stroke="#5E67E6" stroke-width="2"/>
<path opacity="0.29" d="M702.578 669.573L767.175 734.17" stroke="#5E67E6" stroke-width="2"/>
<path opacity="0.29" d="M767.175 669.573L831.773 734.17" stroke="#5E67E6" stroke-width="2"/>
<path opacity="0.29" d="M831.772 669.573L896.37 734.17" stroke="#5E67E6" stroke-width="2"/>
<path opacity="0.29" d="M896.37 669.573L960.967 734.17" stroke="#5E67E6" stroke-width="2"/>
<path opacity="0.29" d="M1025.56 669.573L960.967 734.17" stroke="#5E67E6" stroke-width="2"/>
<path opacity="0.29" d="M1090.16 669.573L1025.56 734.17" stroke="#5E67E6" stroke-width="2"/>
<path opacity="0.29" d="M1154.76 669.573L1090.16 734.17" stroke="#5E67E6" stroke-width="2"/>
<path opacity="0.29" d="M1219.36 669.573L1154.76 734.17" stroke="#5E67E6" stroke-width="2"/>
<path opacity="0.29" d="M1219.36 669.573L1283.96 734.17" stroke="#5E67E6" stroke-width="2"/>
<path opacity="0.29" d="M1348.55 669.573L1283.95 734.17" stroke="#5E67E6" stroke-width="2"/>
<path opacity="0.29" d="M1348.55 669.573L1413.15 734.17" stroke="#5E67E6" stroke-width="2"/>
<path opacity="0.29" d="M1477.75 669.573L1413.15 734.17" stroke="#5E67E6" stroke-width="2"/>
<path opacity="0.23" d="M-7.99512 734.17L56.6024 798.768" stroke="#5E67E6" stroke-width="2"/>
<path opacity="0.23" d="M121.2 734.17L56.6025 798.768" stroke="#5E67E6" stroke-width="2"/>
<path opacity="0.23" d="M121.2 734.17L185.797 798.768" stroke="#5E67E6" stroke-width="2"/>
<path opacity="0.23" d="M250.395 734.17L185.797 798.768" stroke="#5E67E6" stroke-width="2"/>
<path opacity="0.23" d="M314.993 734.17L250.395 798.768" stroke="#5E67E6" stroke-width="2"/>
<path opacity="0.23" d="M314.993 734.17L379.59 798.768" stroke="#5E67E6" stroke-width="2"/>
<path opacity="0.23" d="M444.188 734.17L379.59 798.768" stroke="#5E67E6" stroke-width="2"/>
<path opacity="0.23" d="M444.188 734.17L508.785 798.768" stroke="#5E67E6" stroke-width="2"/>
<path opacity="0.23" d="M508.785 734.17L573.382 798.768" stroke="#5E67E6" stroke-width="2"/>
<path opacity="0.23" d="M573.382 734.17L637.98 798.768" stroke="#5E67E6" stroke-width="2"/>
<path opacity="0.23" d="M637.98 734.17L702.577 798.768" stroke="#5E67E6" stroke-width="2"/>
<path opacity="0.23" d="M702.578 734.17L767.175 798.768" stroke="#5E67E6" stroke-width="2"/>
<path opacity="0.23" d="M831.773 734.17L767.175 798.768" stroke="#5E67E6" stroke-width="2"/>
<path opacity="0.23" d="M831.772 734.17L896.37 798.768" stroke="#5E67E6" stroke-width="2"/>
<path opacity="0.23" d="M960.967 734.17L896.37 798.768" stroke="#5E67E6" stroke-width="2"/>
<path opacity="0.23" d="M960.967 734.17L1025.56 798.768" stroke="#5E67E6" stroke-width="2"/>
<path opacity="0.23" d="M1090.16 734.17L1025.56 798.768" stroke="#5E67E6" stroke-width="2"/>
<path opacity="0.23" d="M1090.16 734.17L1154.76 798.768" stroke="#5E67E6" stroke-width="2"/>
<path opacity="0.23" d="M1154.76 734.17L1219.36 798.768" stroke="#5E67E6" stroke-width="2"/>
<path opacity="0.23" d="M1219.36 734.17L1283.96 798.768" stroke="#5E67E6" stroke-width="2"/>
<path opacity="0.23" d="M1348.55 734.17L1283.95 798.768" stroke="#5E67E6" stroke-width="2"/>
<path opacity="0.23" d="M1348.55 734.17L1413.15 798.768" stroke="#5E67E6" stroke-width="2"/>
<path opacity="0.23" d="M1477.75 734.17L1413.15 798.768" stroke="#5E67E6" stroke-width="2"/>
<path opacity="0.17" d="M56.6024 798.767L-7.99512 863.365" stroke="#5E67E6" stroke-width="2"/>
<path opacity="0.17" d="M56.6025 798.767L121.2 863.365" stroke="#5E67E6" stroke-width="2"/>
<path opacity="0.17" d="M121.2 798.767L185.797 863.365" stroke="#5E67E6" stroke-width="2"/>
<path opacity="0.17" d="M250.395 798.767L185.797 863.365" stroke="#5E67E6" stroke-width="2"/>
<path opacity="0.17" d="M250.395 798.767L314.993 863.365" stroke="#5E67E6" stroke-width="2"/>
<path opacity="0.17" d="M379.59 798.767L314.993 863.365" stroke="#5E67E6" stroke-width="2"/>
<path opacity="0.17" d="M379.59 798.767L444.188 863.365" stroke="#5E67E6" stroke-width="2"/>
<path opacity="0.17" d="M444.188 798.767L508.785 863.365" stroke="#5E67E6" stroke-width="2"/>
<path opacity="0.17" d="M508.785 798.767L573.382 863.365" stroke="#5E67E6" stroke-width="2"/>
<path opacity="0.17" d="M573.382 798.767L637.98 863.365" stroke="#5E67E6" stroke-width="2"/>
<path opacity="0.17" d="M637.98 798.767L702.577 863.365" stroke="#5E67E6" stroke-width="2"/>
<path opacity="0.17" d="M767.175 798.767L702.578 863.365" stroke="#5E67E6" stroke-width="2"/>
<path opacity="0.17" d="M767.175 798.767L831.773 863.365" stroke="#5E67E6" stroke-width="2"/>
<path opacity="0.17" d="M831.772 798.767L896.37 863.365" stroke="#5E67E6" stroke-width="2"/>
<path opacity="0.17" d="M960.967 798.767L896.37 863.365" stroke="#5E67E6" stroke-width="2"/>
<path opacity="0.17" d="M1025.56 798.767L960.967 863.365" stroke="#5E67E6" stroke-width="2"/>
<path opacity="0.17" d="M1090.16 798.767L1025.56 863.365" stroke="#5E67E6" stroke-width="2"/>
<path opacity="0.17" d="M1154.76 798.767L1090.16 863.365" stroke="#5E67E6" stroke-width="2"/>
<path opacity="0.17" d="M1219.36 798.767L1154.76 863.365" stroke="#5E67E6" stroke-width="2"/>
<path opacity="0.17" d="M1219.36 798.767L1283.96 863.365" stroke="#5E67E6" stroke-width="2"/>
<path opacity="0.17" d="M1348.55 798.767L1283.95 863.365" stroke="#5E67E6" stroke-width="2"/>
<path opacity="0.17" d="M1348.55 798.767L1413.15 863.365" stroke="#5E67E6" stroke-width="2"/>
<path opacity="0.17" d="M1477.75 798.767L1413.15 863.365" stroke="#5E67E6" stroke-width="2"/>
</g>
</g>
<defs>
<clipPath id="clip0_2_6">
<rect width="1440" height="800" fill="white"/>
</clipPath>
<clipPath id="clip1_2_6">
<rect width="1440" height="800" fill="white"/>
</clipPath>
<clipPath id="clip2_2_6">
<rect width="1701.07" height="957" fill="white" transform="translate(-137.19 -41)"/>
</clipPath>
</defs>
</svg>
